<svg xmlns="http://www.w3.org/2000/svg" width="1836.479" height="1934.561" viewBox="0 0 1836.479 1934.561">
  <g id="Group_11224" data-name="Group 11224" transform="translate(22481 15756.16)">
    <path id="Path_10269" data-name="Path 10269" d="M75.84,1944.04c-1.92-14.4-2.88-24.96-2.88-30.72,0-34.56,26.88-58.56,65.28-58.56,19.2,0,38.4,7.68,52.8,20.16,62.4,54.72,62.4,54.72,69.12,58.56,24,12.48,47.04,19.2,72.96,19.2,53.76,0,96-26.88,120-76.8,16.32-33.6,24-76.8,29.76-175.68l-7.68-.96c-3.84,33.6-7.68,48.96-17.28,61.44-13.44,16.32-45.12,26.88-80.64,26.88-10.56,0-37.44-.96-63.36-2.88-21.12-1.92-42.24-2.88-60.48-2.88-94.08,0-161.28,37.44-184.32,103.68l-1.92,3.84c-.96-12.48-.96-20.16-.96-26.88,0-48,28.8-108.48,69.12-143.04,25.92-22.08,65.28-40.32,138.24-62.4,78.72-23.04,112.32-38.4,142.08-63.36,32.64-27.84,49.92-64.32,49.92-107.52,0-95.04-86.4-161.28-208.32-161.28-62.4,0-111.36,17.28-144.96,50.88-29.76,30.72-48.96,75.84-48.96,116.16,0,51.84,37.44,90.24,86.4,90.24,48,0,80.64-31.68,80.64-79.68,0-48.96-29.76-78.72-78.72-78.72-22.08,0-35.52,6.72-56.64,28.8,0-23.04,1.92-30.72,8.64-44.16,20.16-40.32,60.48-65.28,103.68-65.28,64.32,0,96,48.96,96,148.8,0,79.68-24.96,127.68-85.44,162.24-87.36,50.88-91.2,52.8-112.32,77.76-28.8,33.6-50.88,94.08-50.88,140.16,0,19.2,2.88,35.52,10.56,72Zm659.52-615.36c-65.28,0-129.6,39.36-173.76,106.56-35.52,52.8-52.8,122.88-52.8,210.24,0,184.32,94.08,313.92,228.48,313.92,121.92,0,221.76-144.96,221.76-321.6,0-95.04-29.76-186.24-77.76-238.08C840,1355.56,785.28,1328.68,735.36,1328.68Zm-7.68,6.72c29.76,0,51.84,22.08,60.48,59.52,8.64,35.52,14.4,137.28,14.4,256.32,0,144-5.76,228.48-18.24,258.24-10.56,25.92-28.8,40.32-53.76,40.32-25.92,0-43.2-14.4-53.76-46.08-11.52-33.6-18.24-163.2-18.24-333.12,0-99.84,4.8-161.28,14.4-188.16C684.48,1352.68,704.64,1335.4,727.68,1335.4Zm279.36,608.64c-1.92-14.4-2.88-24.96-2.88-30.72,0-34.56,26.88-58.56,65.28-58.56,19.2,0,38.4,7.68,52.8,20.16,62.4,54.72,62.4,54.72,69.12,58.56,24,12.48,47.04,19.2,72.96,19.2,53.76,0,96-26.88,120-76.8,16.32-33.6,24-76.8,29.76-175.68l-7.68-.96c-3.84,33.6-7.68,48.96-17.28,61.44-13.44,16.32-45.12,26.88-80.64,26.88-10.56,0-37.44-.96-63.36-2.88-21.12-1.92-42.24-2.88-60.48-2.88-94.08,0-161.28,37.44-184.32,103.68l-1.92,3.84c-.96-12.48-.96-20.16-.96-26.88,0-48,28.8-108.48,69.12-143.04,25.92-22.08,65.28-40.32,138.24-62.4,78.72-23.04,112.32-38.4,142.08-63.36,32.64-27.84,49.92-64.32,49.92-107.52,0-95.04-86.4-161.28-208.32-161.28-62.4,0-111.36,17.28-144.96,50.88-29.76,30.72-48.96,75.84-48.96,116.16,0,51.84,37.44,90.24,86.4,90.24,48,0,80.64-31.68,80.64-79.68,0-48.96-29.76-78.72-78.72-78.72-22.08,0-35.52,6.72-56.64,28.8,0-23.04,1.92-30.72,8.64-44.16,20.16-40.32,60.48-65.28,103.68-65.28,64.32,0,96,48.96,96,148.8,0,79.68-24.96,127.68-85.44,162.24-87.36,50.88-91.2,52.8-112.32,77.76-28.8,33.6-50.88,94.08-50.88,140.16,0,19.2,2.88,35.52,10.56,72Zm406.08-180.48h212.16v102.72c-.96,54.72-5.76,63.36-41.28,67.2h-40.32V1945h310.08v-11.52h-25.92c-39.36-2.88-44.16-9.6-42.24-62.4V1763.56h81.6l19.2-79.68h-10.56c-11.52,34.56-23.04,46.08-48,47.04H1785.6V1335.4H1659.84Zm31.68-32.64,180.48-314.88v314.88Z" transform="translate(-22535.721 -15781)" fill="#212020"/>
    <path id="Path_10271" data-name="Path 10271" d="M75.84,644.04c-1.92-14.4-2.88-24.96-2.88-30.72,0-34.56,26.88-58.56,65.28-58.56,19.2,0,38.4,7.68,52.8,20.16,62.4,54.72,62.4,54.72,69.12,58.56,24,12.48,47.04,19.2,72.96,19.2,53.76,0,96-26.88,120-76.8,16.32-33.6,24-76.8,29.76-175.68l-7.68-.96c-3.84,33.6-7.68,48.96-17.28,61.44-13.44,16.32-45.12,26.88-80.64,26.88-10.56,0-37.44-.96-63.36-2.88-21.12-1.92-42.24-2.88-60.48-2.88-94.08,0-161.28,37.44-184.32,103.68l-1.92,3.84c-.96-12.48-.96-20.16-.96-26.88,0-48,28.8-108.48,69.12-143.04,25.92-22.08,65.28-40.32,138.24-62.4,78.72-23.04,112.32-38.4,142.08-63.36,32.64-27.84,49.92-64.32,49.92-107.52,0-95.04-86.4-161.28-208.32-161.28-62.4,0-111.36,17.28-144.96,50.88-29.76,30.72-48.96,75.84-48.96,116.16,0,51.84,37.44,90.24,86.4,90.24,48,0,80.64-31.68,80.64-79.68,0-48.96-29.76-78.72-78.72-78.72-22.08,0-35.52,6.72-56.64,28.8,0-23.04,1.92-30.72,8.64-44.16,20.16-40.32,60.48-65.28,103.68-65.28,64.32,0,96,48.96,96,148.8,0,79.68-24.96,127.68-85.44,162.24-87.36,50.88-91.2,52.8-112.32,77.76-28.8,33.6-50.88,94.08-50.88,140.16,0,19.2,2.88,35.52,10.56,72ZM735.36,28.68c-65.28,0-129.6,39.36-173.76,106.56-35.52,52.8-52.8,122.88-52.8,210.24,0,184.32,94.08,313.92,228.48,313.92,121.92,0,221.76-144.96,221.76-321.6,0-95.04-29.76-186.24-77.76-238.08C840,55.56,785.28,28.68,735.36,28.68Zm-7.68,6.72c29.76,0,51.84,22.08,60.48,59.52,8.64,35.52,14.4,137.28,14.4,256.32,0,144-5.76,228.48-18.24,258.24-10.56,25.92-28.8,40.32-53.76,40.32-25.92,0-43.2-14.4-53.76-46.08-11.52-33.6-18.24-163.2-18.24-333.12,0-99.84,4.8-161.28,14.4-188.16C684.48,52.68,704.64,35.4,727.68,35.4Zm279.36,608.64c-1.92-14.4-2.88-24.96-2.88-30.72,0-34.56,26.88-58.56,65.28-58.56,19.2,0,38.4,7.68,52.8,20.16,62.4,54.72,62.4,54.72,69.12,58.56,24,12.48,47.04,19.2,72.96,19.2,53.76,0,96-26.88,120-76.8,16.32-33.6,24-76.8,29.76-175.68l-7.68-.96c-3.84,33.6-7.68,48.96-17.28,61.44-13.44,16.32-45.12,26.88-80.64,26.88-10.56,0-37.44-.96-63.36-2.88-21.12-1.92-42.24-2.88-60.48-2.88-94.08,0-161.28,37.44-184.32,103.68l-1.92,3.84c-.96-12.48-.96-20.16-.96-26.88,0-48,28.8-108.48,69.12-143.04,25.92-22.08,65.28-40.32,138.24-62.4,78.72-23.04,112.32-38.4,142.08-63.36,32.64-27.84,49.92-64.32,49.92-107.52,0-95.04-86.4-161.28-208.32-161.28-62.4,0-111.36,17.28-144.96,50.88-29.76,30.72-48.96,75.84-48.96,116.16,0,51.84,37.44,90.24,86.4,90.24,48,0,80.64-31.68,80.64-79.68,0-48.96-29.76-78.72-78.72-78.72-22.08,0-35.52,6.72-56.64,28.8,0-23.04,1.92-30.72,8.64-44.16,20.16-40.32,60.48-65.28,103.68-65.28,64.32,0,96,48.96,96,148.8,0,79.68-24.96,127.68-85.44,162.24-87.36,50.88-91.2,52.8-112.32,77.76-28.8,33.6-50.88,94.08-50.88,140.16,0,19.2,2.88,35.52,10.56,72Zm465.6,0c-1.92-14.4-2.88-24.96-2.88-30.72,0-34.56,26.88-58.56,65.28-58.56,19.2,0,38.4,7.68,52.8,20.16,62.4,54.72,62.4,54.72,69.12,58.56,24,12.48,47.04,19.2,72.96,19.2,53.76,0,96-26.88,120-76.8,16.32-33.6,24-76.8,29.76-175.68l-7.68-.96c-3.84,33.6-7.68,48.96-17.28,61.44-13.44,16.32-45.12,26.88-80.64,26.88-10.56,0-37.44-.96-63.36-2.88-21.12-1.92-42.24-2.88-60.48-2.88-94.08,0-161.28,37.44-184.32,103.68l-1.92,3.84c-.96-12.48-.96-20.16-.96-26.88,0-48,28.8-108.48,69.12-143.04,25.92-22.08,65.28-40.32,138.24-62.4,78.72-23.04,112.32-38.4,142.08-63.36,32.64-27.84,49.92-64.32,49.92-107.52,0-95.04-86.4-161.28-208.32-161.28-62.4,0-111.36,17.28-144.96,50.88-29.76,30.72-48.96,75.84-48.96,116.16,0,51.84,37.44,90.24,86.4,90.24,48,0,80.64-31.68,80.64-79.68,0-48.96-29.76-78.72-78.72-78.72-22.08,0-35.52,6.72-56.64,28.8,0-23.04,1.92-30.72,8.64-44.16,20.16-40.32,60.48-65.28,103.68-65.28,64.32,0,96,48.96,96,148.8,0,79.68-24.96,127.68-85.44,162.24-87.36,50.88-91.2,52.8-112.32,77.76-28.8,33.6-50.88,94.08-50.88,140.16,0,19.2,2.88,35.52,10.56,72Z" transform="translate(-22535.721 -15781)" fill="#212020"/>
    <path id="Path_10270" data-name="Path 10270" d="M75.84,1294.04c-1.92-14.4-2.88-24.96-2.88-30.72,0-34.56,26.88-58.56,65.28-58.56,19.2,0,38.4,7.68,52.8,20.16,62.4,54.72,62.4,54.72,69.12,58.56,24,12.48,47.04,19.2,72.96,19.2,53.76,0,96-26.88,120-76.8,16.32-33.6,24-76.8,29.76-175.68l-7.68-.96c-3.84,33.6-7.68,48.96-17.28,61.44-13.44,16.32-45.12,26.88-80.64,26.88-10.56,0-37.44-.96-63.36-2.88-21.12-1.92-42.24-2.88-60.48-2.88-94.08,0-161.28,37.44-184.32,103.68l-1.92,3.84c-.96-12.48-.96-20.16-.96-26.88,0-48,28.8-108.48,69.12-143.04,25.92-22.08,65.28-40.32,138.24-62.4,78.72-23.04,112.32-38.4,142.08-63.36,32.64-27.84,49.92-64.32,49.92-107.52,0-95.04-86.4-161.28-208.32-161.28-62.4,0-111.36,17.28-144.96,50.88-29.76,30.72-48.96,75.84-48.96,116.16,0,51.84,37.44,90.24,86.4,90.24,48,0,80.64-31.68,80.64-79.68,0-48.96-29.76-78.72-78.72-78.72-22.08,0-35.52,6.72-56.64,28.8,0-23.04,1.92-30.72,8.64-44.16,20.16-40.32,60.48-65.28,103.68-65.28,64.32,0,96,48.96,96,148.8,0,79.68-24.96,127.68-85.44,162.24-87.36,50.88-91.2,52.8-112.32,77.76-28.8,33.6-50.88,94.08-50.88,140.16,0,19.2,2.88,35.52,10.56,72ZM735.36,678.68c-65.28,0-129.6,39.36-173.76,106.56-35.52,52.8-52.8,122.88-52.8,210.24,0,184.32,94.08,313.92,228.48,313.92,121.92,0,221.76-144.96,221.76-321.6,0-95.04-29.76-186.24-77.76-238.08C840,705.56,785.28,678.68,735.36,678.68Zm-7.68,6.72c29.76,0,51.84,22.08,60.48,59.52,8.64,35.52,14.4,137.28,14.4,256.32,0,144-5.76,228.48-18.24,258.24-10.56,25.92-28.8,40.32-53.76,40.32-25.92,0-43.2-14.4-53.76-46.08-11.52-33.6-18.24-163.2-18.24-333.12,0-99.84,4.8-161.28,14.4-188.16C684.48,702.68,704.64,685.4,727.68,685.4Zm279.36,608.64c-1.92-14.4-2.88-24.96-2.88-30.72,0-34.56,26.88-58.56,65.28-58.56,19.2,0,38.4,7.68,52.8,20.16,62.4,54.72,62.4,54.72,69.12,58.56,24,12.48,47.04,19.2,72.96,19.2,53.76,0,96-26.88,120-76.8,16.32-33.6,24-76.8,29.76-175.68l-7.68-.96c-3.84,33.6-7.68,48.96-17.28,61.44-13.44,16.32-45.12,26.88-80.64,26.88-10.56,0-37.44-.96-63.36-2.88-21.12-1.92-42.24-2.88-60.48-2.88-94.08,0-161.28,37.44-184.32,103.68l-1.92,3.84c-.96-12.48-.96-20.16-.96-26.88,0-48,28.8-108.48,69.12-143.04,25.92-22.08,65.28-40.32,138.24-62.4,78.72-23.04,112.32-38.4,142.08-63.36,32.64-27.84,49.92-64.32,49.92-107.52,0-95.04-86.4-161.28-208.32-161.28-62.4,0-111.36,17.28-144.96,50.88-29.76,30.72-48.96,75.84-48.96,116.16,0,51.84,37.44,90.24,86.4,90.24,48,0,80.64-31.68,80.64-79.68,0-48.96-29.76-78.72-78.72-78.72-22.08,0-35.52,6.72-56.64,28.8,0-23.04,1.92-30.72,8.64-44.16,20.16-40.32,60.48-65.28,103.68-65.28,64.32,0,96,48.96,96,148.8,0,79.68-24.96,127.68-85.44,162.24-87.36,50.88-91.2,52.8-112.32,77.76-28.8,33.6-50.88,94.08-50.88,140.16,0,19.2,2.88,35.52,10.56,72Zm580.8-342.72-.96,12.48h40.32c72.96,0,99.84,44.16,99.84,161.28,0,79.68-3.84,103.68-21.12,128.64-20.16,29.76-38.4,38.4-81.6,38.4-40.32,0-68.16-8.64-94.08-29.76-24-19.2-30.72-28.8-40.32-63.36,23.04,13.44,34.56,17.28,50.88,17.28,18.24,0,36.48-6.72,52.8-20.16s24-32.64,24-65.28c0-50.88-30.72-80.64-81.6-80.64-52.8,0-91.2,44.16-91.2,104.64,0,85.44,88.32,149.76,203.52,149.76,132.48,0,242.88-85.44,242.88-189.12,0-38.4-17.28-77.76-45.12-102.72-29.76-27.84-57.6-40.32-124.8-60.48,50.88-19.2,72.96-31.68,94.08-55.68a116.118,116.118,0,0,0,30.72-78.72c0-81.6-77.76-139.2-188.16-139.2-103.68,0-174.72,53.76-174.72,131.52,0,50.88,30.72,84.48,76.8,84.48,45.12,0,76.8-31.68,76.8-77.76,0-44.16-30.72-77.76-71.04-77.76-9.6,0-17.28,1.92-32.64,7.68,12.48-34.56,45.12-54.72,91.2-54.72,56.64,0,74.88,40.32,74.88,165.12,0,67.2-19.2,94.08-68.16,94.08Z" transform="translate(-22535.721 -15781)" fill="#fff"/>
  </g>
</svg>
