<svg xmlns="http://www.w3.org/2000/svg" width="61.113" height="47.988" viewBox="0 0 61.113 47.988">
  <path id="Path_10221" data-name="Path 10221" d="M32.334-67.266a10.163,10.163,0,0,1-3.521,7.656,11.779,11.779,0,0,1-8.306,3.281q-7.52,0-11.553-4.99T4.922-75.127q0-8.2,6.938-16.543a45.186,45.186,0,0,1,16.714-12.646l3.008,4.854a37.869,37.869,0,0,0-12.1,8.75,20.883,20.883,0,0,0-5.059,12.1h3.828a20.8,20.8,0,0,1,6.9.957,11,11,0,0,1,4.307,2.666,9.471,9.471,0,0,1,2.222,3.623A13.091,13.091,0,0,1,32.334-67.266Zm33.7,0a10.163,10.163,0,0,1-3.521,7.656,11.779,11.779,0,0,1-8.306,3.281q-7.52,0-11.553-4.99T38.623-75.127q0-8.2,6.938-16.543a45.186,45.186,0,0,1,16.714-12.646l3.008,4.854a37.869,37.869,0,0,0-12.1,8.75,20.883,20.883,0,0,0-5.059,12.1h3.828a20.8,20.8,0,0,1,6.9.957,11,11,0,0,1,4.307,2.666,9.471,9.471,0,0,1,2.222,3.623A13.091,13.091,0,0,1,66.035-67.266Z" transform="translate(-4.922 104.316)" fill="#b3b3b3"/>
</svg>
